<?xml version="1.0" encoding="utf-8"?>
<!-- Generator: Adobe Illustrator 19.2.1, SVG Export Plug-In . SVG Version: 6.00 Build 0)  -->
<svg version="1.1" id="Слой_1" xmlns="http://www.w3.org/2000/svg" xmlns:xlink="http://www.w3.org/1999/xlink" x="0px" y="0px"
	 viewBox="0 0 67.6 58.3" style="enable-background:new 0 0 67.6 58.3;" xml:space="preserve">
<g>
	<path d="M11.7,0.7c3-0.5,5.9-0.7,8.8-0.7c6.4,0,8.9,1.4,8.9,6.1c0,3.8-0.8,6.1-4.2,6.6v0.2c3.7,0.6,4.8,2.6,4.9,6.6
		c0.1,5.6-2.5,7.9-9.5,7.9c-3.2,0-6.5-0.3-9.5-0.7l0.2-5.1c3.3,0.2,5,0.2,7.3,0.2c3.4,0,4.3-0.5,4.3-3.2c0-2.3-0.6-3.1-3.4-3.1l-5,0
		v-4.6h5c2.9,0,3.1-1.1,3.1-2.9c0-2.1-0.8-2.5-3.4-2.5c-2.7,0-5.4,0-7.3,0.1L11.7,0.7z"/>
	<path d="M33.9,0.5c3.2-0.2,6.5-0.4,10.8-0.4c8.7,0,11.8,3,11.8,13.5c0,10.6-3.1,13.5-11.8,13.5c-4.2,0-7.6-0.2-10.8-0.4V0.5z
		 M41.1,21.8c1.1,0,2.3,0,3.6,0c3.3,0,4.2-1.7,4.2-8.2S48,5.5,44.7,5.5l-3.6,0V21.8z"/>
</g>
<g>
	<path d="M17.9,50.3c0,3.3-1.1,4.6-4.2,4.6s-4.2-1.3-4.2-4.6c0-3.4,1.2-4.6,4.2-4.6S17.9,47,17.9,50.3z M11.4,50.3
		c0,2.4,0.6,3.2,2.4,3.2c1.8,0,2.4-0.7,2.4-3.2c0-2.5-0.6-3.2-2.4-3.2C11.9,47.2,11.4,47.9,11.4,50.3z"/>
	<path d="M27.9,42.8c-1.5,0.9-2.5,0.8-3.9,1.2c-1.7,0.5-2.2,1.7-2.4,2.7c-0.1,0.6-0.2,1.1-0.2,1.3h0c0.4-0.9,1.1-1.8,3.3-1.8
		c2.6,0,3.5,1.2,3.5,4.2c0,2.8-0.8,4.5-4.1,4.5c-3.8,0-4.1-2.4-4.1-5.5c0-3.7,0.4-5.9,3.3-6.8c1.5-0.5,2.6-0.3,4.1-1.2L27.9,42.8z
		 M21.9,50.4c0,2.3,0.6,3,2.3,3c1.7,0,2.3-0.7,2.3-3c0-2.2-0.5-2.8-2.1-2.8C22.3,47.7,21.9,48.6,21.9,50.4z"/>
	<path d="M30.1,46.1c1-0.3,2-0.3,2.8-0.3c2.9,0,4,0.4,4,2.4c0,1.3-0.5,1.9-1.8,2.1v0.1c1.5,0.1,2.2,0.8,2.2,2.3
		c0,1.9-1.1,2.3-3.8,2.3c-1.1,0-2.4-0.1-3.6-0.3l0.1-1.3c0.9,0.1,2.2,0.1,3.3,0.1c1.7,0,2.1-0.2,2.1-1.2c0-1-0.5-1.3-2.1-1.3h-2.2
		v-1.3h2.2c1.5,0,1.9-0.3,1.9-1.3c0-0.9-0.5-1.1-2.3-1.1c-1,0-2,0.1-2.7,0.1L30.1,46.1z"/>
	<path d="M47.6,50.3c0,3.3-1.1,4.6-4.2,4.6c-3.1,0-4.2-1.3-4.2-4.6c0-3.4,1.2-4.6,4.2-4.6C46.4,45.7,47.6,47,47.6,50.3z M41,50.3
		c0,2.4,0.6,3.2,2.4,3.2c1.8,0,2.4-0.7,2.4-3.2c0-2.5-0.6-3.2-2.4-3.2C41.5,47.2,41,47.9,41,50.3z"/>
	<path d="M51.5,47.3c0.9-1,2.4-1.6,3.6-1.6c2.1,0,3,1.7,3,4.7c0,3.4-1.1,4.6-3.4,4.6c-1.1,0-2.2-0.3-3.2-0.9
		c0.1,0.6,0.1,1.2,0.1,1.8v2.5h-1.7V45.9h1.4L51.5,47.3z M51.6,53c1,0.3,1.8,0.5,2.7,0.5c1.5,0,2-0.6,2-3.1c0-2.4-0.5-3.2-1.8-3.2
		c-0.9,0-1.7,0.4-2.9,1.3V53z"/>
</g>
<g>
	<polygon points="29.2,34.1 22.5,40.8 22.5,27.4 	"/>
	<path d="M22.5,36.8C1.2,35.7,0,29.1,0,29.1l0-5.4c0,0,1.4,7.8,22.5,8.6V36.8z"/>
	<path d="M9.2,17.9v4.8c0,0-2.2,0.3-3.9,2.2c0,0-1.9-0.3-2.6-2.4C2.7,22.5,3,20.3,9.2,17.9z"/>
</g>
<g>
	<polygon points="38.4,34.2 45.2,40.9 45.1,27.5 	"/>
	<path d="M45.2,36.8C66.5,35.6,67.6,29,67.6,29l-0.1-5.4c0,0-1.3,7.8-22.4,8.8L45.2,36.8z"/>
	<path d="M58.3,17.9l0,4.8c0,0,2.2,0.3,3.9,2.1c0,0,1.9-0.3,2.6-2.4C64.9,22.4,64.5,20.2,58.3,17.9z"/>
</g>
</svg>
