<?xml version="1.0" encoding="utf-8"?>
<?xml-stylesheet type="text/css" href="svg.css" ?>
<svg version="1.1" xmlns="http://www.w3.org/2000/svg" xmlns:xlink="http://www.w3.org/1999/xlink" x="0px" y="0px"
	 viewBox="0 0 13 9" style="enable-background:new 0 0 13 9;" xml:space="preserve">
<path d="M1.3,4.8l3.1,0.5l-1.3,1C3,6.5,3,6.5,3,6.6c0,0.1,0.1,0.1,0.1,0.1c0,0,0,0,0.1,0l2.5-1C5.8,5.9,5.9,6,6.1,6
	c0.1,0,0.1,0,0.2,0C6.3,6,6.4,6,6.4,6c0.2,0,0.3-0.1,0.3-0.3c0,0,0,0,0,0C6.9,5.6,7,5.5,7,5.4l3.8,0.1c-0.1,0.1-0.2,0.2-0.2,0.3
	c0,0.2,0.1,0.3,0.3,0.3c0.2,0,0.3-0.1,0.3-0.3c0-0.1-0.1-0.2-0.2-0.3l0.7,0c0.5,0,0.9,0.1,0.9-0.4c-0.3-0.8-1.5-1.2-2-1.3L7.8,3.8
	L3.6,2c0,0,0,0-0.1,0C3.5,1.9,3.4,2,3.4,2c0,0.1,0,0.2,0,0.2l1.7,1.5L2.4,3.7c-0.3-0.5-0.6-1-0.9-1.6C0.6,0.5,0.3,1.4,0.3,1.7
	l0.1,2.9c0,0.2,0.2,0.2,0.4,0.2L1.3,4.8z M1.3,4.8"/>
</svg>
