<?xml version="1.0" encoding="utf-8"?>
<?xml-stylesheet type="text/css" href="svg.css" ?>
<svg version="1.1" id="Слой_1" xmlns="http://www.w3.org/2000/svg" xmlns:xlink="http://www.w3.org/1999/xlink" x="0px" y="0px"
	 viewBox="0 0 170 90" style="enable-background:new 0 0 170 90;" xml:space="preserve">
<g>
	<path d="M148.9,73.2H21.1c-1.9,0-3.5,1.6-3.5,3.5c0,1.9,1.6,3.5,3.5,3.5h3.7c1.4,5.6,6.4,9.8,12.5,9.8h95.5c6,0,11.1-4.2,12.5-9.8
		h3.7c1.9,0,3.5-1.6,3.5-3.5C152.4,74.8,150.9,73.2,148.9,73.2L148.9,73.2z"/>
	<path d="M85,0c3.5,0,6.3,2.8,6.3,6.3s-2.8,6.3-6.3,6.3c-3.5,0-6.3-2.8-6.3-6.3S81.5,0,85,0L85,0z"/>
	<path d="M39.7,60.6c0.5-1.4,1.2-2.9,1.9-4.4c0.7-1.6,1.6-3.1,2.5-4.7c1-1.6,1.9-3.2,3.1-4.8c1.1-1.6,2.3-3.1,3.6-4.6
		c0.6-0.7,1.3-1.5,1.9-2.2c0.7-0.7,1.4-1.3,2.1-2c1.3-1.4,2.8-2.4,4.2-3.5c1.4-1.1,2.9-2,4.2-2.8c1.3-0.9,2.7-1.6,4-2.1
		c1.3-0.6,2.4-1.2,3.4-1.6c1.1-0.4,2-0.7,2.7-0.9c1.5-0.5,2.3-0.8,2.3-0.8s-0.7,0.5-2,1.4c-0.6,0.5-1.4,1-2.3,1.6
		c-0.9,0.6-1.7,1.5-2.7,2.4c-1,0.9-2,1.8-3,3c-1,1.1-2.1,2.2-2.9,3.6c-0.9,1.3-1.9,2.6-2.7,4.1c-0.4,0.7-0.8,1.4-1.2,2.2
		c-0.4,0.7-0.7,1.5-1.1,2.3c-0.7,1.5-1.3,3.1-1.8,4.6c-0.6,1.5-0.9,3.1-1.3,4.6c-0.3,1.5-0.7,2.9-0.8,4.3c-0.2,1.4-0.4,2.7-0.5,3.9
		c-0.1,1.2-0.1,2.3-0.2,3.3h92c-4.7-29.1-29.9-51.3-60.3-51.3c-30.4,0-55.6,22.2-60.3,51.3h12.8C37.9,65.5,38.7,63.2,39.7,60.6
		L39.7,60.6z"/>
</g>
</svg>
