<?xml version="1.0" encoding="utf-8"?>
<?xml-stylesheet type="text/css" href="svg.css" ?>
<svg version="1.1" xmlns="http://www.w3.org/2000/svg" xmlns:xlink="http://www.w3.org/1999/xlink" x="0px" y="0px"
	 viewBox="0 0 388 382" style="enable-background:new 0 0 388 382;" xml:space="preserve">
<style type="text/css">
	.st0{fill:#4b403f;}
</style>
<g>	<g>
		<path class="st0" d="M290.7,88.5h5.6c8.4,0,15.3-6.8,15.3-15.3V15.3c0-8.4-6.8-15.3-15.3-15.3h-5.6c-8.4,0-15.3,6.8-15.3,15.3
			v57.9C275.4,81.6,282.3,88.5,290.7,88.5L290.7,88.5z M290.7,88.5"/>
		<path class="st0" d="M363.1,31.4h-39.2v45.8c0,15.3-12.4,23.7-27.7,23.7h-5.6c-15.3,0-27.7-12.4-27.7-27.7V31.4H128v42.1
			c0,15.3-12.4,27.7-27.7,27.7h-5.6c-15.3,0-27.7-12.4-27.7-27.7V31.4H24.8C11.1,31.4,0,42.6,0,56.2v300c0,13.7,11.1,24.8,24.8,24.8
			h338.3c13.7,0,24.8-11.1,24.8-24.8v-300C388,42.6,376.8,31.4,363.1,31.4L363.1,31.4z M363.1,356.3H24.8V129.7h338.3L363.1,356.3
			C363.1,356.3,363.1,356.3,363.1,356.3L363.1,356.3z M363.1,356.3"/>
		<path class="st0" d="M94.8,88.8h5.6c8.4,0,15.3-6.8,15.3-15.3V15.7c0-8.4-6.8-15.3-15.3-15.3h-5.6c-8.4,0-15.3,6.8-15.3,15.3v57.9
			C79.5,82,86.4,88.8,94.8,88.8L94.8,88.8z M94.8,88.8"/>
	</g>
	<path d="M206.8,205.7h44.6c1.8,0,3.2-1.4,3.2-3.2v-38.6c0-1.8-1.4-3.2-3.2-3.2h-44.6c-1.8,0-3.2,1.4-3.2,3.2v38.6
		C203.6,204.3,205,205.7,206.8,205.7L206.8,205.7z M206.8,205.7"/>
	<path d="M279.6,205.7h44.6c1.8,0,3.2-1.4,3.2-3.2v-38.6c0-1.8-1.4-3.2-3.2-3.2h-44.6c-1.8,0-3.2,1.4-3.2,3.2v38.6
		C276.4,204.3,277.8,205.7,279.6,205.7L279.6,205.7z M279.6,205.7"/>
	<path d="M61.3,268.9h44.6c1.8,0,3.2-1.4,3.2-3.2v-38.6c0-1.8-1.4-3.2-3.2-3.2H61.3c-1.8,0-3.2,1.4-3.2,3.2v38.6
		C58.1,267.5,59.5,268.9,61.3,268.9L61.3,268.9z M61.3,268.9"/>
	<path d="M134,268.9h44.6c1.8,0,3.2-1.4,3.2-3.2v-38.6c0-1.8-1.4-3.2-3.2-3.2H134c-1.8,0-3.2,1.4-3.2,3.2v38.6
		C130.8,267.5,132.3,268.9,134,268.9L134,268.9z M134,268.9"/>
	<path d="M206.8,268.9h44.6c1.8,0,3.2-1.4,3.2-3.2v-38.6c0-1.8-1.4-3.2-3.2-3.2h-44.6c-1.8,0-3.2,1.4-3.2,3.2v38.6
		C203.6,267.5,205,268.9,206.8,268.9L206.8,268.9z M206.8,268.9"/>
	<path d="M279.6,268.9h44.6c1.8,0,3.2-1.4,3.2-3.2v-38.6c0-1.8-1.4-3.2-3.2-3.2h-44.6c-1.8,0-3.2,1.4-3.2,3.2v38.6
		C276.4,267.5,277.8,268.9,279.6,268.9L279.6,268.9z M279.6,268.9"/>
	<path d="M105.9,287.1H61.3c-1.8,0-3.2,1.4-3.2,3.2v38.6c0,1.8,1.4,3.2,3.2,3.2h44.6c1.8,0,3.2-1.4,3.2-3.2v-38.6
		C109.1,288.5,107.6,287.1,105.9,287.1L105.9,287.1z M105.9,287.1"/>
	<path d="M178.6,287.1H134c-1.8,0-3.2,1.4-3.2,3.2v38.6c0,1.8,1.4,3.2,3.2,3.2h44.6c1.8,0,3.2-1.4,3.2-3.2v-38.6
		C181.8,288.5,180.4,287.1,178.6,287.1L178.6,287.1z M178.6,287.1"/>
	<path d="M251.4,287.1h-44.6c-1.8,0-3.2,1.4-3.2,3.2v38.6c0,1.8,1.4,3.2,3.2,3.2h44.6c1.8,0,3.2-1.4,3.2-3.2v-38.6
		C254.6,288.5,253.1,287.1,251.4,287.1L251.4,287.1z M251.4,287.1"/>
	<path d="M324.1,287.1h-44.6c-1.8,0-3.2,1.4-3.2,3.2v38.6c0,1.8,1.4,3.2,3.2,3.2h44.6c1.8,0,3.2-1.4,3.2-3.2v-38.6
		C327.3,288.5,325.9,287.1,324.1,287.1L324.1,287.1z M324.1,287.1"/>
</g>
</svg>
