<?xml version="1.0" encoding="utf-8"?>
<?xml-stylesheet type="text/css" href="svg.css" ?>
<svg version="1.1" id="Слой_1" xmlns="http://www.w3.org/2000/svg" xmlns:xlink="http://www.w3.org/1999/xlink" x="0px" y="0px"
	 viewBox="0 0 170 90" style="enable-background:new 0 0 170 90;" xml:space="preserve">
<g>
	<g>
		<path class="st0" d="M126.8,52.5c0,0.1,0,0.1-0.1,0.2c-1.7,4.2-21.3,9.3-41.8,9.3c-21,0-39.5-6-41.3-9.9c0-0.1-0.1-0.2-0.1-0.3
			c0-0.1,0-0.2,0-0.3v-0.1l0.1,0c0-0.1,0.1-0.3,0.3-0.5l7.8-10l2.5-3.2l7.3-9.3l2.6-3.3l6.1-7.7c1.3-1.6,4.9-3.4,14.7-3.4
			c7.8,0,12.8,1.2,14.7,3.4l6.2,7.9v0l1.7,2.1l0,0l0,0l8.2,10.4l1.9,2.4l0,0l0,0l8.3,10.6l0.1,0.2C126.8,51.8,126.9,52.3,126.8,52.5
			L126.8,52.5z M141.1,22.6c-1.5-1.3-8.2-1.6-12.7-1.7h-0.6c-0.2,0-0.4,0-0.6,0c-0.7,0-1.3,0-1.8,0c-3.6,0-5.1,3.7-5.4,5.1
			c-0.3,1.9-1.7,6.6-2.6,9.7l-0.4-0.5v0l-0.4-0.5c0.9-3,2-7.1,2.3-8.8c0.3-1.7,2.1-6,6.4-6c0.7,0,1.4,0,2.1,0
			c0.5-2.3,0.1-4.2-1.1-5.3c-0.9-0.8-4.7-1.3-11.5-1.3c-0.4,0-0.9,0-1.4,0c-2.8,0-3.9,2.9-4.2,4c-0.2,1.3-1.1,4-1.7,6l-0.4-0.5
			l-0.4-0.5c0.6-1.9,1.3-4,1.5-5.1c0.3-1.3,1.7-4.9,5.2-4.9c0.5,0,1.1,0,1.6,0c0.3-1.9-0.1-3.4-1.1-4.4c-1.3-1.2-7.9-1.8-10.4-1.8
			c-2.5,0-3.5,2.4-3.7,3.5c-0.2,1.1-0.7,2.8-1,4.1c-1.2-0.6-2.6-1.1-4.3-1.5V4.8c0-2.6-4.4-4.8-9.8-4.8c-5.4,0-9.8,2.1-9.8,4.8V12
			c-1.6,0.4-3,0.8-4.1,1.4c-0.4-1.2-0.8-2.9-1-4c-0.2-1.1-1.3-3.5-3.7-3.5c-2.4,0-9.1,0.6-10.4,1.8c-1,1-1.4,2.5-1.1,4.4
			c0.6,0,1.1,0,1.6,0c3.5,0,5,3.5,5.2,4.9c0.2,1.1,0.8,3.2,1.4,5l-0.4,0.5L62.2,23c-0.6-2-1.4-4.5-1.7-5.8c-0.2-1.1-1.4-4-4.2-4
			c-0.5,0-0.9,0-1.4,0c-6.7,0-10.6,0.5-11.5,1.3c-1.2,1.1-1.6,3-1.1,5.3c0.7,0,1.4,0,2.1,0c4.3,0,6.1,4.3,6.4,6
			c0.3,1.6,1.4,5.6,2.3,8.6l-0.4,0.5l-0.4,0.5c-0.9-3.1-2.2-7.6-2.5-9.5c-0.3-1.4-1.8-5.1-5.4-5.1c-0.5,0-1.1,0-1.8,0
			c-0.2,0-0.4,0-0.6,0h-0.6c-4.5,0.1-11.2,0.3-12.6,1.7c-1.9,1.7-2.2,4.7-1.1,8.4c1.5,4.8,5.6,27.3,5.8,28.2c0,0,1.3,2.6,8.6,3.8v8
			l-7-2.8c-0.7-0.3-1.4,0.1-1.7,0.7c-0.2,0.5-0.1,1,0.2,1.4c-0.2,0.3-0.3,0.6-0.3,0.9c0,0.9,0.7,1.5,1.6,1.5c0.8,0,1.4-0.5,1.5-1.2
			l4,1.6l-6.2,2.5c-0.7,0.3-1,1-0.7,1.7c0,0.1,0.1,0.2,0.1,0.3c-0.1,0.2-0.2,0.5-0.2,0.8c0,0.9,0.7,1.6,1.6,1.6
			c0.9,0,1.6-0.7,1.6-1.6c0-0.3-0.1-0.5-0.2-0.8l7.7-3.1l7.6,3c-0.1,0.2-0.1,0.3-0.1,0.5c0,0.9,0.7,1.6,1.5,1.6s1.6-0.7,1.6-1.6
			c0-0.2,0-0.4-0.1-0.6c0-0.1,0.1-0.1,0.1-0.2c0.3-0.7-0.1-1.5-0.7-1.7l-6.3-2.5l4.2-1.7c0.3,0.4,0.7,0.6,1.2,0.6
			c0.9,0,1.6-0.7,1.6-1.6c0-0.2,0-0.3-0.1-0.5c0.2-0.3,0.2-0.7,0.1-1.1c-0.3-0.7-1-1-1.7-0.7l-7,2.8v-7.6c0.3,0,0.5,0,0.8,0.1
			c0.4,0.2,0.9,0.4,1.3,0.6c0.4,0.2,0.9,0.4,1.4,0.6c3.1,1.2,6.9,2.3,11,3.2c1.9,1.3,3.6,3,3.6,5.4c0,5.3,0,12.3,0,12.3
			S66,90,85.4,90c19.5,0,21.4-4.4,21.4-4.4s0-7,0-12.3c0-2.2,1.5-3.9,3.2-5.1c0,0,0,0,0,0c4.7-0.9,9.1-2.1,12.5-3.5c0,0,0,0,0,0h0
			c0,0,0,0,0,0c0.2,0,0.3,0,0.5,0v6.5l-7-2.8c-0.7-0.3-1.4,0.1-1.7,0.7c-0.2,0.5-0.1,1,0.2,1.4c-0.2,0.3-0.3,0.6-0.3,0.9
			c0,0.9,0.7,1.5,1.6,1.5c0.8,0,1.4-0.5,1.5-1.2l4,1.6l-6.3,2.5c-0.7,0.3-1,1-0.7,1.7c0,0.1,0.1,0.2,0.1,0.3
			c-0.1,0.2-0.2,0.5-0.2,0.8c0,0.9,0.7,1.6,1.6,1.6c0.9,0,1.6-0.7,1.6-1.6c0-0.3-0.1-0.5-0.2-0.8l7.7-3.1l7.6,3
			c-0.1,0.2-0.1,0.3-0.1,0.5c0,0.9,0.7,1.6,1.5,1.6c0.9,0,1.6-0.7,1.6-1.6c0-0.2,0-0.4-0.1-0.6c0-0.1,0.1-0.1,0.1-0.2
			c0.3-0.7-0.1-1.5-0.7-1.7l-6.3-2.5l4.2-1.7c0.3,0.4,0.7,0.6,1.2,0.6c0.9,0,1.6-0.7,1.6-1.6c0-0.2,0-0.3-0.1-0.5
			c0.2-0.3,0.2-0.7,0.1-1.1c-0.3-0.7-1-1-1.7-0.7l-7,2.8v-7.9c8.3-1.1,9.6-4,9.7-4c0.1-0.8,4.2-23.3,5.8-28.1
			C143.4,27.3,143,24.3,141.1,22.6L141.1,22.6z"/>
	</g>
</g>
</svg>
