<?xml version="1.0" encoding="utf-8"?>
<!-- Generator: Adobe Illustrator 19.2.1, SVG Export Plug-In . SVG Version: 6.00 Build 0)  -->
<svg version="1.1" id="Слой_1" xmlns="http://www.w3.org/2000/svg" xmlns:xlink="http://www.w3.org/1999/xlink" x="0px" y="0px"
	 viewBox="0 0 246.9 373.3" style="enable-background:new 0 0 246.9 373.3;" xml:space="preserve">
<path d="M123.5,0C55.4,0,0,55.4,0,123.5c0,27.4,17.5,72.1,53.5,136.7c25.5,45.7,50.5,83.7,51.6,85.3l18.4,27.8l18.4-27.8
	c1.1-1.6,26.1-39.7,51.6-85.3c36-64.5,53.5-109.2,53.5-136.7C246.9,55.4,191.5,0,123.5,0L123.5,0z M123.5,186.6
	c-35.3,0-64-28.7-64-64c0-35.3,28.7-64,64-64c35.3,0,64,28.7,64,64C187.5,158,158.8,186.6,123.5,186.6L123.5,186.6z M123.5,186.6"/>
</svg>
