<?xml version="1.0" encoding="utf-8"?>
<!-- Generator: Adobe Illustrator 19.2.1, SVG Export Plug-In . SVG Version: 6.00 Build 0)  -->
<svg version="1.1" id="Слой_1" xmlns="http://www.w3.org/2000/svg" xmlns:xlink="http://www.w3.org/1999/xlink" x="0px" y="0px"
	 viewBox="0 0 47.7 54.6" style="enable-background:new 0 0 47.7 54.6;" xml:space="preserve">
<style type="text/css">
	.st0{fill-rule:evenodd;clip-rule:evenodd;fill:#7EA8AD;}
	.st1{fill:#7EA8AD;}
</style>
<path class="st0" d="M25.9,10.5c5.2,0,10.8,1.2,14.9,3.6c0,0,0.1,0,0.1,0.1v7.7H40c-3.3-8-7.7-9.5-15.1-9.4c-3.6,0-7.9,1.2-11.2,4
	c-4,3.4-6.7,9.1-6.7,16c0,7,2.7,12.8,7.3,16.6c2.7,2.2,8,4,11.8,3.8c4-0.1,8.9-1.4,9.7-5.9c0.1-0.8,0.2-1.9,0.2-3.2
	c-2.8,2.3-6.3,3.7-10.4,3.9C16.8,48,9.7,41.2,9.7,32.8c0-3.9,1.4-7.8,4-10.5c2.9-2.9,7.2-4.4,11.8-4.4c3.9,0,7.7,1.2,10.5,3.4
	c3.4,2.7,5.3,6.8,5.3,11.2l0,0c0,0.7,0,1.4,0,2.1c2.6,0.2,6.3,0.4,6.3,0.4l0,1.6c0,0-4.1,0.1-6.3,0.3c0,1.8-0.1,3.5-0.1,5.3
	c0,2.2,0,4.4-0.1,6.7c-0.1,1.3-1.8,2.6-3.1,3.1c0,0-0.1,0-0.1,0c-3.6,1.4-7.7,2.3-12.1,2.5c-5.5,0.3-11.2-0.3-15.3-2.5
	C3.9,48.4,0,41.4,0,33.5c0-5.3,1.5-10.8,4.9-14.7C9.6,13.2,17.5,10.5,25.9,10.5L25.9,10.5z M35.5,39.6c0.1-0.8,0.4-2.6-0.5-2.7
	c-1.1-0.2-7.5-0.4-7.5-0.4l0-1.6c0,0,7.5-0.4,8.6-0.5c0-0.5,0-1,0-1.5c0-4.1-0.4-7.7-2.8-10.2c-1.9-2-4.6-3.3-8.3-3.3
	c-3.7,0-6.4,1.3-8.4,4c-1.8,2.4-2.8,5.5-2.8,9.1c0,7.7,5.8,14.1,11.1,13.9c5.3-0.2,7-1.5,9-3.7C34.6,41.8,35.2,40.8,35.5,39.6
	L35.5,39.6z"/>
<path class="st1" d="M7.4,5.3l2.2,1.3L9,4.2l1.9-1.7L8.4,2.3L7.4,0l-1,2.3L3.9,2.5l1.9,1.7L5.3,6.6L7.4,5.3z M7.4,5.3"/>
<path class="st1" d="M17.8,5.3L20,6.6l-0.6-2.5l1.9-1.7l-2.5-0.2l-1-2.3l-1,2.3l-2.5,0.2l1.9,1.7l-0.6,2.5L17.8,5.3z M17.8,5.3"/>
<path class="st1" d="M28.2,5.3l2.2,1.3l-0.6-2.5l1.9-1.7l-2.5-0.2l-1-2.3l-1,2.3l-2.5,0.2l1.9,1.7L26,6.6L28.2,5.3z M28.2,5.3"/>
<path class="st1" d="M38.6,5.3l2.2,1.3l-0.6-2.5l1.9-1.7l-2.5-0.2l-1-2.3l-1,2.3l-2.5,0.2L37,4.2l-0.6,2.5L38.6,5.3z M38.6,5.3"/>
</svg>
