<?xml version="1.0" encoding="utf-8"?>
<!-- Generator: Adobe Illustrator 19.2.1, SVG Export Plug-In . SVG Version: 6.00 Build 0)  -->
<svg version="1.1" id="Слой_1" xmlns="http://www.w3.org/2000/svg" xmlns:xlink="http://www.w3.org/1999/xlink" x="0px" y="0px"
	 viewBox="0 0 20 23" style="enable-background:new 0 0 20 23;" xml:space="preserve">
<path d="M10,0C4.5,0,0,4.5,0,10c0,3.8,2.1,7.1,5.2,8.8l-0.1,4.1L9.8,20c0.1,0,0.1,0,0.2,0c5.5,0,10-4.5,10-10C20,4.5,15.5,0,10,0z
	 M9.6,16c-0.9,0-1.5-0.7-1.5-1.5c0-0.9,0.6-1.5,1.5-1.5c0.9,0,1.5,0.6,1.5,1.5C11.1,15.4,10.5,16,9.6,16z M11.6,9.7
	c-0.6,0.7-0.9,1.3-0.9,2.1v0.3H8.5l0-0.4c-0.1-0.9,0.2-1.7,1-2.6c0.5-0.6,1-1.2,1-1.8c0-0.6-0.4-1-1.2-1C8.7,6.3,8,6.5,7.5,6.8L7,5
	c0.6-0.4,1.6-0.7,2.8-0.7C12,4.3,13,5.5,13,6.9C13,8.2,12.2,9,11.6,9.7z"/>
</svg>
