<?xml version="1.0" encoding="utf-8"?>
<?xml-stylesheet type="text/css" href="svg.css" ?>
<svg version="1.1" xmlns="http://www.w3.org/2000/svg" xmlns:xlink="http://www.w3.org/1999/xlink" x="0px" y="0px"
	 viewBox="0 0 15.1 12.1" style="enable-background:new 0 0 15.1 12.1;" xml:space="preserve">
<path d="M0,10.8l0-0.5h1.2V8.2h1.1V6.8h-2V6.1h4v0.5h0.5V6.1h4.4v0.5h2.1l-0.1-0.9h-0.1v-1h0.3c-0.1-0.4-0.3-1-0.7-1.2
	C10,3.2,10,4,8.6,3.4c-1.4-0.7-1.2-0.2-1.7,0C6.5,3.6,6.1,3.8,5.1,3.3c-1-0.5-1,0.2-1.1,0.2c-0.1,0-1.2,0.6-1.6-0.7
	c-0.4-1.3,0.8-2,1.3-2c0.5,0,0.9,0.6,1.5,0.2C5.8,0.5,6,0.6,6.9,0.8c0.9,0.2,1-0.1,1.4-0.3c0.4-0.2,1.5-1,2.3,0.1
	c0.8,1.1,0.1,1.4,0.5,1.6c0.4,0.2,0.9,0.7,0.9,1c0,0.3,0.3,0.8,0.1,1.4c0,0,0,0.1,0,0.1h0.5v1h-0.1l-0.1,0.9h1.1l0.9,1.4l-0.9,1.4
	h0.8v1h0.8v0.5h-0.7c0.1,0.1,0.2,0.3,0.2,0.5c0,0.5-0.4,0.8-0.8,0.8c-0.5,0-0.8-0.4-0.8-0.8c0-0.2,0.1-0.4,0.2-0.5h-0.9
	c0,0,0,0,0,0.1c0,0.7-0.6,1.3-1.3,1.3c-0.7,0-1.3-0.6-1.3-1.3c0,0,0,0,0-0.1H9.1c0,0,0,0,0,0.1c0,0.7-0.6,1.3-1.3,1.3
	c-0.7,0-1.3-0.6-1.3-1.3c0,0,0,0,0-0.1H6.1c0,0,0,0,0,0.1c0,0.7-0.6,1.3-1.3,1.3c-0.7,0-1.3-0.6-1.3-1.3c0,0,0,0,0-0.1H2.6
	c0.1,0.1,0.2,0.3,0.2,0.5c0,0.5-0.4,0.8-0.8,0.8c-0.5,0-0.8-0.4-0.8-0.8c0-0.2,0.1-0.4,0.2-0.5H0L0,10.8z M0,10.8"/>
</svg>
