<?xml version="1.0" encoding="utf-8"?>
<?xml-stylesheet type="text/css" href="svg.css" ?>
<svg version="1.1" id="Слой_1" xmlns="http://www.w3.org/2000/svg" xmlns:xlink="http://www.w3.org/1999/xlink" x="0px" y="0px" viewBox="0 0 170 90" style="enable-background:new 0 0 170 90;" xml:space="preserve">
<g>
	<g>
		<path class="st3" d="M28.5,48.8c-6.8,0-12.4,5.6-12.4,12.4c0,6.8,5.5,12.4,12.4,12.4c6.9,0,12.4-5.5,12.4-12.4
			C40.9,54.3,35.4,48.8,28.5,48.8L28.5,48.8L28.5,48.8z"/>
		<path class="st3" d="M64.9,36.7V22.6C103,20,118,35.4,118.1,37.8C118.2,39.5,64.9,36.7,64.9,36.7L64.9,36.7z M59.9,36.9
			c0,0-24-0.6-24-3.2c0-5.9,9.1-9.1,24-10.8V36.9L59.9,36.9z M169.8,64.8c0.9-11.7-2.6-20.3-7.3-23.3c-6-3.8-34.2-5.6-38.4-7.7
			c-10.3-5.3-43.6-37.5-121.3,6L1,51.5c0,3,0,7.3,1.5,12.1l9.9,2c-0.4-1.4-0.7-2.9-0.7-4.4c0-9.2,7.5-16.7,16.7-16.7
			c9.3,0,16.8,7.5,16.8,16.7c0,1.4-0.2,2.7-0.5,4c21.9-0.2,51.7-0.3,76.8-0.3c-0.3-1.2-0.4-2.4-0.4-3.7c0-9.2,7.5-16.7,16.7-16.7
			c9.3,0,16.8,7.5,16.8,16.7c0,1.3-0.2,2.5-0.4,3.6C163.7,64.8,169.8,64.8,169.8,64.8L169.8,64.8z"/>
	</g>
		<path d="M137.7,48.8c-6.8,0-12.4,5.6-12.4,12.4c0,6.8,5.5,12.4,12.4,12.4c6.9,0,12.4-5.5,12.4-12.4C150.1,54.3,144.6,48.8,137.7,48.8L137.7,48.8L137.7,48.8z"/>
</g>

</svg>
