<?xml version="1.0" encoding="utf-8"?>
<!-- Generator: Adobe Illustrator 19.2.1, SVG Export Plug-In . SVG Version: 6.00 Build 0)  -->
<svg version="1.1" id="Layer_1" xmlns="http://www.w3.org/2000/svg" xmlns:xlink="http://www.w3.org/1999/xlink" x="0px" y="0px"
	 viewBox="0 0 38 21.6" style="enable-background:new 0 0 38 21.6;" xml:space="preserve">
<path d="M12.6,1.4c0.3-0.7,0.8-1.1,1.5-1.2C14.9,0.1,15.7,0,16.5,0c1.3,0,2.6,0,3.8,0.2c1.4,0.2,1.8,0.6,1.9,2.1
	c0,1.7-0.1,3.3-0.1,5c0,0.6,0,1.1,0,1.7c0,0.3,0.1,0.7,0.3,1c0.3,0.7,0.8,0.8,1.3,0.3c0.8-0.9,1.7-1.8,2.3-2.9
	c1-1.7,1.9-3.5,2.7-5.3c0.5-1,0.6-1.1,1.7-1.1c1.9,0,3.9,0,5.8-0.1c1.6,0,2.1,0.6,1.4,2.1c-0.8,1.6-1.9,3.1-2.9,4.6
	c-0.8,1.2-1.7,2.2-2.5,3.4c-0.8,1.1-0.7,1.7,0.2,2.6c1,1,2.1,2,3,3c0.8,0.8,1.5,1.7,2.1,2.7c0.8,1.2,0.3,2.2-1.2,2.2
	c-1.9,0.1-3.9,0.1-5.8,0.1c-0.1,0-0.2,0-0.3,0c-1-0.2-1.8-0.8-2.5-1.5c-0.9-1-1.8-2-2.8-2.9c-1-1-1.9-0.7-2.3,0.6
	c-0.2,0.7-0.3,1.5-0.4,2.2c-0.1,0.9-0.4,1.2-1.3,1.2c-1.1,0-2.3,0-3.4,0c-3-0.2-5.6-1.4-7.8-3.5c-1.6-1.5-2.9-3.3-4.2-5.2
	c-2.1-3.2-3.8-6.5-5.4-10C-0.2,1.5,0,1,1.1,0.9c1.8-0.1,3.6-0.1,5.4,0c0.7,0,1.2,0.4,1.5,1.1c0.9,2.2,2,4.3,3.3,6.2
	c0.5,0.7,1,1.4,1.6,1.9c0.7,0.7,1.4,0.5,1.7-0.5c0.2-0.6,0.3-1.3,0.3-1.9c0-1.2,0-2.3,0-3.5C14.8,2.5,14.3,2,12.6,1.4"/>
</svg>
