<?xml version="1.0" encoding="utf-8"?>
<?xml-stylesheet type="text/css" href="svg.css" ?>
<svg version="1.1" id="Слой_1" xmlns="http://www.w3.org/2000/svg" xmlns:xlink="http://www.w3.org/1999/xlink" x="0px" y="0px"
	 viewBox="0 0 170 90" style="enable-background:new 0 0 170 90;" xml:space="preserve">
<g>
	<g>
		<defs>
			<rect id="SVGID_5_" x="8" y="0" width="154" height="90"/>
		</defs>
		<clipPath id="SVGID_6_">
			<use xlink:href="#SVGID_5_"  style="overflow:visible;"/>
		</clipPath>
		<path class="st4" d="M23,15.2H30c0.9,0,1.7,0.7,1.8,1.6c0.8,5.3,1.6,10.6,2.4,15.9c0.1,0.9,0.4,0.9,0.6,0.1c0.1-0.5,0.2-1,0.3-1.5
			c1-5.2,2-10.3,3.1-15.5c0.1-0.3,0.1-0.6,0.5-0.5c2.4,0,4.9,0,7.3,0c0,0,0.1,0,0.2,0c0.1,0,0.3,0.7,0.5,1.6
			c1.1,5.3,2.3,10.7,3.5,16c0.2,0.9,0.5,0.8,0.6,0c0.1-0.7,0.2-1.4,0.3-2.2c0.7-5,1.4-10,2.1-15c0-0.2,0.2-0.4,0.3-0.4
			c2.8,0,5.6,0,8.4,0c0.9,0,1.4,0.7,1.2,1.6c-0.2,0.7-0.3,1.4-0.5,2.1c-2.5,9.9-4.9,19.8-7.4,29.8c-0.2,0.9-0.1,0.8-1,0.8
			c-2.4,0-4.7,0-7.1,0c-0.5,0-0.6-0.1-0.7-0.6c-1.2-6.4-2.5-12.8-3.8-19.2c0-0.1,0-0.1,0-0.1c0-0.1-0.2,0.4-0.3,1.1
			c-0.1,0.4-0.2,0.8-0.3,1.2c-1.1,5.6-2.2,11.3-3.4,16.9c-0.1,0.5-0.3,0.6-0.8,0.6c-2.5,0-5,0-7.6,0c-0.4,0-0.5-0.1-0.6-0.5
			c-2.7-11-5.3-22.1-8-33.1c0-0.1,0-0.2-0.1-0.3C21.4,15.3,22.1,15.2,23,15.2L23,15.2L23,15.2z M66.4,26c0-0.9,0.7-1.6,1.6-1.6h6.3
			c0.9,0,1.6,0.7,1.6,1.6v21.8c0,0.9-0.7,1.6-1.6,1.6H68c-0.9,0-1.6-0.7-1.6-1.6C66.4,40.5,66.4,33.3,66.4,26L66.4,26L66.4,26z
			 M66.4,15.8c0-0.9,0.7-1.6,1.6-1.6h6.2c0.9,0,1.6,0.7,1.6,1.6v4.4c0,0.9-0.7,1.6-1.6,1.6H68c-0.9,0-1.6-0.7-1.6-1.6V15.8
			L66.4,15.8z M80.1,60.6c0.3-0.3,0.6-0.7,0.9-1c3.8-4,6.2-8.7,7.6-13.9c0.2-0.7,0.3-1.5,0.3-2.2c0-7.4-0.1-14.8,0.1-22.2
			c0.1-6,3-10.6,8.1-13.8c2.8-1.8,5.9-2.6,9.2-2.6c11,0,22.1,0,33.1,0c5.3,0,9.8,1.9,13.3,5.9c2.4,2.7,3.8,6,4.1,9.7
			c0.1,0.8,0.1,1.6,0.1,2.3c0,7.2,0,14.3,0,21.5c-0.1,7.1-3.3,12.3-9.6,15.6c-2.3,1.2-4.8,1.7-7.4,1.7c-20.1,0-40.2,0-60.3,0
			c-0.1,0-0.1,0-0.2,0C79.2,61.6,79.5,61.1,80.1,60.6L80.1,60.6L80.1,60.6z M27.9,66.9c19,0,38,0,57.1,0c18.9,0,37.9,0,56.8,0
			c5.6,0,10.3-2,14.3-5.9c3.8-3.8,5.9-8.4,5.9-13.8c0.1-9.1,0-18.2,0-27.3c0-0.7,0-1.3-0.1-2C160.7,7.7,152.1,0,141.9,0
			c-2,0-3.9,0-5.9,0C100.1,0,64.2,0,28.3,0C22.8,0,18,1.9,14.1,5.8c-3.9,3.8-6,8.5-6,14C8,28.9,8,38.1,8,47.2c0,1.7,0.3,3.4,0.8,5.1
			C11.1,60.8,19.1,66.9,27.9,66.9L27.9,66.9L27.9,66.9z"/>
	</g>
	<path d="M101.8,49.5h6.8c0.9,0,1.6-0.7,1.6-1.6v-7.1c0-0.9,0.7-1.6,1.6-1.6h14.4c0.9,0,1.6-0.7,1.5-1.6c0-1.7-0.1-3.4-0.1-5.1
		c0-0.9-0.8-1.6-1.6-1.6H112c-0.9,0-1.6-0.7-1.6-1.6v-4.1c0-0.9,0.7-1.6,1.6-1.6h16.5c0.9,0,1.6-0.7,1.6-1.6v-5.2
		c0-0.9-0.7-1.6-1.6-1.6h-26.7c-0.9,0-1.6,0.7-1.6,1.6V48C100.2,48.8,100.9,49.5,101.8,49.5L101.8,49.5L101.8,49.5z"/>
	<path d="M136.2,49.4h6.5c0.9,0,1.6-0.7,1.6-1.6V25.9c0-0.9-0.7-1.6-1.6-1.6h-6.5c-0.9,0-1.6,0.7-1.6,1.6v21.9
		C134.7,48.7,135.4,49.4,136.2,49.4L136.2,49.4L136.2,49.4z"/>
	<path d="M136.3,21.9h6.6c0.9,0,1.6-0.7,1.6-1.6v-4.6c0-0.9-0.7-1.6-1.6-1.6h-6.6c-0.9,0-1.6,0.7-1.6,1.6v4.6
		C134.7,21.2,135.4,21.9,136.3,21.9L136.3,21.9L136.3,21.9z"/>
	<polygon points="59.3,79.1 66.5,79.1 66.5,83.5 59.3,83.5 59.3,90 54.5,90 54.5,71.2 67.6,71.2 67.6,75.7 59.3,75.7 59.3,79.1 	"/>
	<path d="M77.3,80c3,0,3-4.3,0-4.3h-2.8V80H77.3L77.3,80z M75.4,84h-0.8v6h-4.8V71.2h7.5c3.9,0,6.9,1.8,7,6.2c0,3.5-1.4,5.4-3.7,6.2
		l5.1,6.4h-5.9L75.4,84L75.4,84z"/>
	<polygon points="91.7,78.6 99.3,78.6 99.3,82.7 91.7,82.7 91.7,85.5 99.9,85.5 99.9,90 86.9,90 86.9,71.2 99.9,71.2 99.9,75.7 
		91.7,75.7 91.7,78.6 	"/>
	<polygon points="107.2,78.6 114.9,78.6 114.9,82.7 107.2,82.7 107.2,85.5 115.5,85.5 115.5,90 102.4,90 102.4,71.2 115.5,71.2 
		115.5,75.7 107.2,75.7 107.2,78.6 	"/>
</g>
</svg>
