<?xml version="1.0" encoding="iso-8859-1"?>
<!-- Generator: Adobe Illustrator 16.0.0, SVG Export Plug-In . SVG Version: 6.00 Build 0)  -->
<!DOCTYPE svg PUBLIC "-//W3C//DTD SVG 1.1//EN" "http://www.w3.org/Graphics/SVG/1.1/DTD/svg11.dtd">
<svg version="1.1" id="Capa_1" xmlns="http://www.w3.org/2000/svg" xmlns:xlink="http://www.w3.org/1999/xlink" x="0px" y="0px"
	 width="352.134px" height="352.135px" viewBox="0 0 352.134 352.135" style="enable-background:new 0 0 352.134 352.135;"
	 xml:space="preserve">
<g>
	<g>
		<path style="fill:#030303;" d="M95.622,195.177l-12.119,10.956c-1.229,1.109-1.933,2.688-1.933,4.34v13.283
			c0,3.236,2.625,5.855,5.855,5.855h66.509c3.233,0,5.855-2.619,5.855-5.855V205.71c0-3.236-2.622-5.855-5.855-5.855H134.15
			c12.777-11.808,23.907-25.137,23.907-42.042c0-21.442-15.213-35.291-38.757-35.291c-12.617,0-25.099,3.954-34.256,10.844
			c-2.104,1.587-2.894,4.38-1.927,6.828l6.207,15.739c0.672,1.71,2.107,3.005,3.88,3.497c1.77,0.498,3.668,0.123,5.123-0.995
			c5.698-4.369,11.25-6.582,16.497-6.582c8.594,0,9.589,4.478,9.589,7.699C124.204,168.134,114.969,177.874,95.622,195.177z
			 M136.134,159.691c0-11.879-8.36-19.562-21.3-19.562c-5.744,0-11.524,1.609-17.257,4.794l-1.821-4.62
			c6.693-3.848,15.19-6.078,23.544-6.078c16.94,0,27.046,8.812,27.046,23.581c0,12.857-9.192,23.704-22.852,35.895l-8.66,7.216
			c-1.335,1.109-2.107,3.042-2.107,4.78c0,3.236,2.622,5.855,5.855,5.855h29.496v6.336H93.281v-4.826l10.164-9.189
			C125.779,183.913,135.797,172.817,136.134,159.691z"/>
		<path style="fill:#030303;" d="M212.23,184.942v-20.771c0-4.906,0.223-10.323,0.703-17.045c0.12-1.621-0.446-3.214-1.562-4.403
			c-1.098-1.195-2.652-1.869-4.276-1.869h-0.572c-2.219,0-4.243,1.249-5.237,3.233c-1.167,2.318-2.242,4.549-3.306,6.756
			c-1.692,3.52-3.351,6.959-5.111,10.272l-12.554,20.487c-0.569,0.915-0.861,2.265-0.861,3.34c0,3.236,2.619,5.854,5.855,5.854
			h21.065C209.611,190.797,212.23,188.179,212.23,184.942z M200.519,179.087h-4.935l4.935-8.06V179.087z"/>
		<path style="fill:#030303;" d="M206.375,229.622h20.779c3.236,0,5.855-2.618,5.855-5.854v-16.52h5.397
			c3.236,0,5.855-2.619,5.855-5.855v-16.45c0-3.236-2.619-5.855-5.855-5.855h-5.397v-49.124c0-3.23-2.619-5.855-5.855-5.855h-26.841
			c-2.023,0-3.899,1.049-4.975,2.771l-35.494,57.149c-0.575,0.926-0.878,2.001-0.878,3.087v14.278c0,3.236,2.622,5.855,5.855,5.855
			h35.697v16.52C200.519,227.004,203.138,229.622,206.375,229.622z M170.677,195.537v-6.741l32.884-52.972h17.737v49.129
			c0,3.236,2.613,5.855,5.855,5.855h5.397v4.734h-5.397c-3.242,0-5.855,2.619-5.855,5.855v16.514h-9.074v-16.514
			c0-3.236-2.613-5.855-5.855-5.855h-35.692V195.537z"/>
		<path style="fill:#030303;" d="M351.452,130.644c-1.018-1.915-3.008-3.116-5.181-3.116h-34.445
			C290.79,61.796,228.915,16.261,159.807,16.261C71.692,16.261,0,87.953,0,176.067c0,88.115,71.692,159.807,159.807,159.807
			c51.004,0,99.379-24.673,129.398-65.997c6.312-8.714,4.38-20.962-4.328-27.298c-3.357-2.436-7.325-3.728-11.465-3.728
			c-6.232,0-12.156,3.008-15.839,8.051c-22.689,31.243-59.239,49.896-97.767,49.896c-66.566,0-120.722-54.155-120.722-120.719
			c0-66.566,54.155-120.722,120.722-120.722c47.848,0,91.185,28.673,110.369,72.176h-30.752c-2.219,0-4.242,1.249-5.237,3.228
			s-0.789,4.349,0.537,6.124l55.888,75.161c1.133,1.509,2.894,2.315,4.826,2.355c1.898-0.04,3.654-1.001,4.724-2.562l50.97-75.171
			C352.344,134.878,352.463,132.557,351.452,130.644z M295.083,198.442l-44.006-59.205h27.732c1.904,0,3.694-0.929,4.792-2.487
			c1.092-1.564,1.355-3.554,0.721-5.352c-18.887-52.485-68.926-87.757-124.516-87.757c-73.02,0-132.432,59.407-132.432,132.432
			c0,73.025,59.407,132.43,132.432,132.43c42.268,0,82.356-20.454,107.241-54.716c2.441-3.351,7.564-4.197,10.938-1.738
			c3.494,2.544,4.271,7.45,1.75,10.944c-27.824,38.299-72.653,61.165-119.921,61.165c-81.665,0-148.099-66.438-148.099-148.097
			c0-81.661,66.435-148.096,148.099-148.096c65.394,0,123.815,44.02,142.061,107.042c0.721,2.499,3.02,4.226,5.627,4.226h27.732
			L295.083,198.442z"/>
	</g>
</g>
<g>
</g>
<g>
</g>
<g>
</g>
<g>
</g>
<g>
</g>
<g>
</g>
<g>
</g>
<g>
</g>
<g>
</g>
<g>
</g>
<g>
</g>
<g>
</g>
<g>
</g>
<g>
</g>
<g>
</g>
</svg>
