<?xml version='1.0' encoding='iso-8859-1'?>
<!DOCTYPE svg PUBLIC '-//W3C//DTD SVG 1.1//EN' 'http://www.w3.org/Graphics/SVG/1.1/DTD/svg11.dtd'>
<svg version="1.1" xmlns="http://www.w3.org/2000/svg" viewBox="0 0 225.945 225.945" xmlns:xlink="http://www.w3.org/1999/xlink" enable-background="new 0 0 225.945 225.945">
  <g>
    <path d="m101.679,0c-9.313,0-18.589,1.143-27.571,3.396-3.214,0.807-5.166,4.066-4.359,7.28 0.806,3.214 4.065,5.165 7.279,4.36 6.097-1.53 12.348-2.483 18.651-2.855v55.357c-2.798-0.117-5.601-0.34-8.404-0.673 0.948-2.976 1.463-6.144 1.463-9.43v-2.958c0-10.424-8.48-18.905-18.904-18.905-32.279,0-58.541,26.262-58.541,58.542v36.745c0,32.28 26.262,58.541 58.541,58.541 10.424,0 18.904-8.48 18.904-18.904 0-4.031-0.778-7.882-2.178-11.421 3.004-0.553 6.049-0.94 9.119-1.165v55.855c-6.303-0.372-12.554-1.326-18.651-2.855-3.213-0.805-6.474,1.146-7.279,4.36-0.807,3.214 1.146,6.473 4.359,7.28 8.982,2.253 18.259,3.396 27.571,3.396 62.293,0 112.973-50.679 112.973-112.973 0-62.294-50.68-112.973-112.973-112.973zm77.935,177.103c-6.459-6.328-13.806-11.811-21.734-16.344 5.151-15.314 7.875-31.482 7.875-47.881 0-16.412-2.729-32.597-7.892-47.927 7.984-4.449 15.315-9.85 21.746-16.117 14.39,17.453 23.043,39.803 23.043,64.137-2.84217e-14,24.332-8.651,46.68-23.038,64.132zm-71.935,36.659v-55.929c11.997,0.706 24.044,3.71 35.202,8.706-7.406,17.613-18.422,33.699-32.52,47.029-0.89,0.076-1.784,0.141-2.682,0.194zm0-134.36c13.709-0.837 27.063-3.969 39.306-9.147 4.433,13.667 6.771,28.049 6.771,42.624 0,14.511-2.313,28.828-6.706,42.437-12.496-5.481-25.964-8.748-39.371-9.469v-66.445zm2.902-67.005c13.939,13.238 24.851,29.182 32.219,46.631-10.904,4.682-22.836,7.541-35.12,8.363v-55.208c0.971,0.057 1.937,0.13 2.901,0.214zm20.021,3.831c15.496,4.641 29.441,12.906 40.841,23.815-5.316,5.219-11.344,9.766-17.901,13.583-5.767-13.459-13.483-26.081-22.94-37.398zm22.955,155.87c6.504,3.896 12.547,8.515 17.892,13.797-11.452,10.961-25.474,19.254-41.057,23.884 9.562-11.391 17.354-24.11 23.165-37.681zm-83.723,5.301c-25.663,0-46.541-20.878-46.541-46.541v-36.745c0-25.663 20.878-46.542 46.541-46.542 3.807,0 6.904,3.098 6.904,6.905v2.958c0,10.56-8.591,19.151-19.15,19.151h-8.498c-3.313,0-6,2.687-6,6v62.758c0,3.314 2.687,6 6,6h8.498c10.56,0 19.15,8.591 19.15,19.151 0,3.808-3.098,6.905-6.904,6.905zm12.755-29.791c-0.998,0.204-1.885,0.646-2.619,1.253-5.667-5.862-13.604-9.518-22.382-9.518h-2.498v-50.758h2.498c9.43,0 17.889-4.218 23.605-10.859 0.645,0.369 1.367,0.628 2.147,0.737 4.113,0.576 8.231,0.932 12.339,1.085v66.334c-4.418,0.279-8.794,0.848-13.09,1.726z"/>
  </g>
</svg>
