<?xml version="1.0" encoding="iso-8859-1"?>
<!-- Generator: Adobe Illustrator 17.1.0, SVG Export Plug-In . SVG Version: 6.00 Build 0)  -->
<!DOCTYPE svg PUBLIC "-//W3C//DTD SVG 1.1//EN" "http://www.w3.org/Graphics/SVG/1.1/DTD/svg11.dtd">
<svg version="1.1" id="Capa_1" xmlns="http://www.w3.org/2000/svg" xmlns:xlink="http://www.w3.org/1999/xlink" x="0px" y="0px"
	 viewBox="0 0 442.004 442.004" style="enable-background:new 0 0 442.004 442.004;" xml:space="preserve">
<g>
	<path d="M441.784,412.342L416.919,295.12l-39.216-184.874c-1.146-5.402-6.454-8.853-11.857-7.707
		c-5.402,1.146-8.854,6.455-7.707,11.857l36.654,172.798h-66.088c-5.522,0-10,4.477-10,10s4.478,10,10,10h70.331l23.184,109.297
		c0.997,4.703,5.149,7.927,9.772,7.927c0.688,0,1.386-0.071,2.085-0.22c4.701-0.997,7.924-5.146,7.927-9.766
		C442.005,413.744,441.934,413.044,441.784,412.342z"/>
	<path d="M359.894,28.587c0.009-0.085,0.008-0.17,0.015-0.256c0.021-0.275,0.035-0.55,0.034-0.822
		c-0.001-0.098-0.009-0.195-0.013-0.292c-0.009-0.259-0.025-0.517-0.054-0.773c-0.012-0.105-0.029-0.209-0.045-0.314
		c-0.036-0.245-0.079-0.487-0.133-0.727c-0.025-0.112-0.053-0.222-0.082-0.333c-0.06-0.228-0.127-0.453-0.202-0.675
		c-0.039-0.115-0.077-0.231-0.121-0.345c-0.082-0.217-0.174-0.429-0.271-0.639c-0.051-0.11-0.098-0.222-0.153-0.331
		c-0.117-0.231-0.246-0.455-0.38-0.676c-0.047-0.078-0.088-0.159-0.138-0.236c-0.189-0.293-0.393-0.576-0.611-0.848
		c-0.008-0.01-0.015-0.021-0.023-0.032c-0.045-0.055-0.097-0.103-0.143-0.157c-0.175-0.207-0.354-0.408-0.545-0.601
		c-0.08-0.08-0.164-0.154-0.246-0.232c-0.177-0.166-0.357-0.327-0.546-0.481c-0.09-0.073-0.182-0.142-0.274-0.212
		c-0.192-0.145-0.389-0.283-0.592-0.414c-0.096-0.062-0.192-0.123-0.289-0.181c-0.206-0.123-0.418-0.238-0.634-0.347
		c-0.104-0.052-0.206-0.106-0.312-0.154c-0.212-0.098-0.431-0.184-0.652-0.268c-0.116-0.044-0.231-0.092-0.349-0.131
		c-0.212-0.071-0.43-0.129-0.649-0.186c-0.13-0.034-0.259-0.075-0.39-0.104c-0.025-0.005-0.048-0.014-0.073-0.02
		c-0.238-0.05-0.474-0.081-0.711-0.114c-0.089-0.012-0.176-0.032-0.265-0.042c-0.365-0.041-0.729-0.06-1.09-0.061
		c-0.003,0-0.006-0.001-0.009-0.001h-257.8c-0.022,0-0.045,0-0.067,0h-0.022c-0.04,0-0.079,0.005-0.119,0.006
		c-0.295,0.003-0.589,0.015-0.879,0.044c-0.087,0.009-0.172,0.026-0.258,0.037c-0.238,0.03-0.476,0.061-0.71,0.108
		c-0.139,0.028-0.273,0.067-0.409,0.1c-0.176,0.043-0.354,0.083-0.527,0.135c-0.167,0.051-0.329,0.113-0.493,0.173
		c-0.138,0.05-0.278,0.095-0.413,0.151c-0.171,0.07-0.335,0.152-0.501,0.232c-0.125,0.06-0.251,0.115-0.373,0.18
		c-0.156,0.083-0.304,0.175-0.455,0.266c-0.127,0.076-0.256,0.149-0.379,0.23c-0.13,0.086-0.254,0.181-0.38,0.273
		c-0.136,0.1-0.274,0.197-0.405,0.303c-0.103,0.084-0.199,0.174-0.299,0.262c-0.144,0.127-0.289,0.252-0.425,0.387
		c-0.081,0.08-0.155,0.165-0.233,0.248c-0.144,0.152-0.288,0.304-0.422,0.465c-0.068,0.082-0.13,0.169-0.195,0.252
		c-0.132,0.169-0.264,0.337-0.385,0.515c-0.068,0.099-0.127,0.204-0.191,0.305c-0.106,0.168-0.214,0.335-0.311,0.511
		c-0.078,0.142-0.145,0.29-0.216,0.436c-0.069,0.142-0.143,0.281-0.206,0.427c-0.092,0.213-0.17,0.434-0.247,0.655
		c-0.03,0.087-0.067,0.17-0.095,0.258c-0.091,0.284-0.165,0.575-0.231,0.869c-0.007,0.032-0.019,0.063-0.025,0.096l-0.004,0.018
		c-0.005,0.025-0.011,0.049-0.016,0.074L25.087,295.113c-0.008,0.039-0.017,0.078-0.025,0.117L0.22,412.342
		c-1.146,5.403,2.305,10.711,7.707,11.857c0.7,0.148,1.397,0.22,2.085,0.22c4.622,0,8.775-3.224,9.772-7.927l23.184-109.297h98.178
		l23.184,109.297c0.997,4.703,5.149,7.927,9.772,7.927c0.688,0,1.386-0.071,2.085-0.22c5.402-1.146,8.854-6.455,7.707-11.857
		l-22.304-105.147h118.821l-22.304,105.147c-1.146,5.403,2.305,10.711,7.707,11.857c0.7,0.148,1.397,0.22,2.085,0.22
		c4.622,0,8.775-3.224,9.772-7.927L359.729,29.66C359.805,29.301,359.858,28.943,359.894,28.587z M100.159,37.585h237.444
		l-52.948,249.611H47.211L100.159,37.585z"/>
	<path d="M263.129,87.918H149.036c-5.522,0-10,4.477-10,10s4.478,10,10,10h114.093c5.522,0,10-4.477,10-10
		S268.651,87.918,263.129,87.918z"/>
	<path d="M254.012,130.899H139.919c-5.522,0-10,4.477-10,10s4.478,10,10,10h114.093c5.522,0,10-4.477,10-10
		S259.534,130.899,254.012,130.899z"/>
	<path d="M244.895,173.88H130.802c-5.522,0-10,4.477-10,10s4.478,10,10,10h114.093c5.522,0,10-4.477,10-10
		S250.417,173.88,244.895,173.88z"/>
	<path d="M235.777,216.862H121.685c-5.522,0-10,4.477-10,10s4.478,10,10,10h114.093c5.522,0,10-4.477,10-10
		S241.3,216.862,235.777,216.862z"/>
</g>
<g>
</g>
<g>
</g>
<g>
</g>
<g>
</g>
<g>
</g>
<g>
</g>
<g>
</g>
<g>
</g>
<g>
</g>
<g>
</g>
<g>
</g>
<g>
</g>
<g>
</g>
<g>
</g>
<g>
</g>
</svg>
