<?xml version='1.0' encoding='iso-8859-1'?>
<!DOCTYPE svg PUBLIC '-//W3C//DTD SVG 1.1//EN' 'http://www.w3.org/Graphics/SVG/1.1/DTD/svg11.dtd'>
<svg version="1.1" xmlns="http://www.w3.org/2000/svg" viewBox="0 0 262.572 262.572" xmlns:xlink="http://www.w3.org/1999/xlink" enable-background="new 0 0 262.572 262.572">
  <g>
    <path d="m260.814,232.811l-69.58-69.58c-1.125-1.125-2.651-1.757-4.242-1.757-1.592,0-3.117,0.632-4.243,1.757l-5.517,5.517-14.765-14.764c14.915-16.936 23.082-38.439 23.082-61.208 0-24.781-9.65-48.079-27.174-65.602-17.521-17.524-40.819-27.174-65.601-27.174s-48.079,9.65-65.6,27.173c-17.524,17.523-27.174,40.821-27.174,65.601 0,24.781 9.65,48.079 27.173,65.602 17.522,17.523 40.82,27.173 65.602,27.173 22.77,0 44.273-8.166 61.208-23.081l14.765,14.765-5.518,5.518c-2.343,2.343-2.343,6.142 0.001,8.485l69.579,69.58c1.171,1.172 2.706,1.757 4.242,1.757 1.535,0 3.071-0.586 4.242-1.757l19.52-19.519c1.126-1.125 1.758-2.651 1.758-4.243s-0.632-3.118-1.758-4.243zm-168.04-59.262c-21.576,0-41.859-8.402-57.116-23.658-15.256-15.257-23.658-35.541-23.658-57.117s8.402-41.86 23.659-57.116c15.256-15.256 35.539-23.658 57.115-23.658s41.86,8.402 57.117,23.658c15.256,15.256 23.658,35.541 23.658,57.116s-8.402,41.86-23.658,57.116c-15.256,15.257-35.54,23.659-57.117,23.659zm144.279,74.538l-61.094-61.094 11.033-11.034 61.095,61.095-11.034,11.033z"/>
    <path d="m118.324,50.292c-2.343-2.343-6.143-2.344-8.485,0-2.344,2.343-2.344,6.142-0.001,8.485l6.642,6.642h-61.896c-3.313,0-6,2.687-6,6s2.687,6 6,6h61.896l-6.642,6.642c-2.343,2.343-2.343,6.143 0.001,8.485 1.171,1.171 2.707,1.757 4.242,1.757s3.071-0.586 4.243-1.757l16.884-16.885c2.343-2.343 2.343-6.142 0-8.485l-16.884-16.884z"/>
    <path d="m130.965,108.13h-61.896l6.642-6.642c2.344-2.343 2.344-6.142 0.001-8.485-2.343-2.343-6.143-2.344-8.485,0l-16.885,16.884c-1.126,1.125-1.758,2.651-1.758,4.243s0.632,3.117 1.758,4.243l16.885,16.885c1.171,1.171 2.707,1.757 4.242,1.757s3.071-0.586 4.242-1.757c2.344-2.343 2.344-6.142 0-8.485l-6.642-6.642h61.896c3.313,0 6-2.687 6-6s-2.687-6.001-6-6.001z"/>
  </g>
</svg>
