<?xml version="1.0" encoding="iso-8859-1"?>
<!-- Generator: Adobe Illustrator 17.1.0, SVG Export Plug-In . SVG Version: 6.00 Build 0)  -->
<!DOCTYPE svg PUBLIC "-//W3C//DTD SVG 1.1//EN" "http://www.w3.org/Graphics/SVG/1.1/DTD/svg11.dtd">
<svg version="1.1" id="Capa_1" xmlns="http://www.w3.org/2000/svg" xmlns:xlink="http://www.w3.org/1999/xlink" x="0px" y="0px"
	 viewBox="0 0 446.244 446.244" style="enable-background:new 0 0 446.244 446.244;" xml:space="preserve">
<path d="M142.531,150.003c10.719,6.369,22.735,9.552,34.754,9.552c12.016,0,24.035-3.184,34.752-9.551
	c25.356-15.063,39.173-44.778,37.963-81.591c11.77-4.359,22.956-9.237,33.315-14.575c4.909-2.529,6.838-8.56,4.309-13.47
	c-2.529-4.909-8.558-6.838-13.47-4.309c-8.592,4.427-17.789,8.516-27.447,12.235c-9.98-31.725-40.708-47.293-69.071-48.289
	c-0.233-0.008-0.468-0.008-0.701,0c-33.665,1.182-70.662,22.897-72.338,67.784C103.207,104.889,117.034,134.854,142.531,150.003z
	 M125.085,62.763c3.922-28.214,28.345-41.795,52.2-42.756c21.528,0.867,43.521,12.013,50.491,34.918
	c-32.405,10.287-68.469,16.57-103.274,17.686C124.505,71.267,124.827,64.624,125.085,62.763z M230.049,75.14
	c-0.556,26.429-10.658,47.233-28.226,57.67c-15.137,8.993-33.941,8.992-49.077-0.001c-13.494-8.017-22.582-22.149-26.321-40.251
	C161.245,91.316,197.259,85.16,230.049,75.14z M289.621,338.237c0,5.523-4.475,10.007-9.998,10.007h-0.004
	c-5.523,0-10-4.484-10-10.007s4.477-10.007,10-10.007S289.621,332.714,289.621,338.237z M377.931,371.791l-37.233-33.56
	l37.233-33.559c3.075-2.771,4.125-7.15,2.64-11.014s-5.196-6.414-9.335-6.414h-143.71c-5.523,0-10.411,4.477-10.411,10v129h-6.629
	c-5.523,0-10,4.478-10,10s4.478,10,10,10h34.075c5.523,0,10-4.478,10-10s-4.478-10-10-10h-7.445v-37h134.121
	c4.139,0,7.851-2.562,9.335-6.427C382.055,378.953,381.006,374.562,377.931,371.791z M237.116,369.244v-62h108.089l-26.138,23.559
	c-2.104,1.896-3.305,4.596-3.305,7.428c0,2.832,1.201,5.544,3.305,7.44l26.139,23.573H237.116z M150.403,271.63
	c0,14.823,12.06,26.882,26.882,26.882c5.523,0,10,4.477,10,10s-4.477,10-10,10c-25.851,0-46.882-21.031-46.882-46.882
	c0-25.851,21.031-46.883,46.882-46.883c16.683,0,32.242,8.979,40.604,23.432c2.766,4.78,1.132,10.898-3.648,13.664
	c-4.78,2.765-10.897,1.133-13.664-3.648c-4.799-8.294-13.724-13.447-23.292-13.447C162.463,244.747,150.403,256.807,150.403,271.63z
	 M187.019,374.244c0,5.523-4.477,10-10,10H75.007c-2.971,0-5.789-1.456-7.688-3.74s-2.686-5.43-2.144-8.351l23.58-127.243
	c8.238-44.472,50.104-64.665,88.109-64.665c0.048,0,0.096,0,0.144,0h0.329c0.048,0,0.096,0,0.144,0
	c38.005,0,79.871,20.202,88.109,64.674c1.006,5.43-2.581,10.677-8.011,11.683c-5.433,1.009-10.648-2.565-11.654-7.995
	c-6.168-33.297-38.945-48.203-68.751-48.257c-29.807,0.054-62.584,15.057-68.752,48.354L87.031,364.244h89.988
	C182.542,364.244,187.019,368.721,187.019,374.244z"/>
<g>
</g>
<g>
</g>
<g>
</g>
<g>
</g>
<g>
</g>
<g>
</g>
<g>
</g>
<g>
</g>
<g>
</g>
<g>
</g>
<g>
</g>
<g>
</g>
<g>
</g>
<g>
</g>
<g>
</g>
</svg>
