<?xml version='1.0' encoding='iso-8859-1'?>
<!DOCTYPE svg PUBLIC '-//W3C//DTD SVG 1.1//EN' 'http://www.w3.org/Graphics/SVG/1.1/DTD/svg11.dtd'>
<svg version="1.1" xmlns="http://www.w3.org/2000/svg" viewBox="0 0 240.487 240.487" xmlns:xlink="http://www.w3.org/1999/xlink" enable-background="new 0 0 240.487 240.487">
  <g>
    <path d="m207.32,130.103h-37.014l-4.738-27.622 36.617-35.694c1.635-1.594 2.224-3.979 1.518-6.15-0.705-2.172-2.583-3.755-4.843-4.083l-50.605-7.354-22.63-45.855c-1.011-2.049-3.097-3.345-5.381-3.345s-4.37,1.296-5.381,3.345l-22.631,45.855-50.604,7.354c-2.26,0.328-4.138,1.911-4.843,4.083-0.706,2.172-0.117,4.556 1.518,6.15l36.617,35.694-4.738,27.622h-37.015c-11.862,0-21.514,9.651-21.514,21.514v67.356c0,11.863 9.651,21.514 21.514,21.514h174.153c11.862,0 21.514-9.651 21.514-21.514v-67.356c-0.001-11.863-9.652-21.514-21.514-21.514zm-121.765-34.013l-30.171-29.41 41.695-6.059c1.954-0.284 3.644-1.511 4.518-3.282l18.646-37.782 18.646,37.782c0.874,1.771 2.563,2.999 4.518,3.282l41.695,6.059-30.171,29.41c-1.414,1.378-2.059,3.364-1.726,5.311l7.123,41.526-37.294-19.606c-0.874-0.46-1.833-0.689-2.792-0.689s-1.918,0.229-2.792,0.689l-37.294,19.606 7.123-41.526c0.335-1.946-0.31-3.932-1.724-5.311zm131.278,122.883c0,5.246-4.268,9.514-9.514,9.514h-174.152c-5.246,0-9.514-4.268-9.514-9.514v-67.356c0-5.246 4.268-9.514 9.514-9.514h34.956l-1.849,10.778c-0.386,2.251 0.54,4.526 2.388,5.868 1.847,1.343 4.296,1.521 6.318,0.457l32.533-17.104h25.459l32.533,17.104c0.878,0.461 1.836,0.689 2.791,0.689 1.244,0 2.482-0.386 3.527-1.146 1.848-1.342 2.773-3.617 2.388-5.868l-1.849-10.778h34.956c5.246,0 9.514,4.268 9.514,9.514v67.356z"/>
    <path d="m187.876,168.987h-135.265c-3.313,0-6,2.687-6,6v32.597c0,3.314 2.687,6 6,6h135.266c3.313,0 6-2.686 6-6v-32.597c-0.001-3.314-2.687-6-6.001-6zm-6,32.597h-123.265v-20.597h123.266v20.597z"/>
    <path d="m105.737,86.78c2.75,1.85 6.479,1.118 8.327-1.63l1.338-1.989v27.225c0,3.313 2.687,6 6,6s6-2.687 6-6v-46.899c0-2.64-1.725-4.969-4.25-5.739-2.521-0.77-5.255,0.2-6.729,2.391l-12.316,18.313c-1.85,2.75-1.119,6.478 1.63,8.328z"/>
  </g>
</svg>
