<?xml version='1.0' encoding='iso-8859-1'?>
<!DOCTYPE svg PUBLIC '-//W3C//DTD SVG 1.1//EN' 'http://www.w3.org/Graphics/SVG/1.1/DTD/svg11.dtd'>
<svg version="1.1" xmlns="http://www.w3.org/2000/svg" viewBox="0 0 240.097 240.097" xmlns:xlink="http://www.w3.org/1999/xlink" enable-background="new 0 0 240.097 240.097">
  <g>
    <path d="m188.048,0h-136c-3.313,0-6,2.687-6,6v184.173c0,3.313 2.687,6 6,6h34.333v31.924h-5.807c-3.313,0-6,2.687-6,6s2.687,6 6,6h11.807 55.334 11.807c3.313,0 6-2.687 6-6s-2.687-6-6-6h-5.807v-31.924h34.333c3.313,0 6-2.687 6-6v-184.173c0-3.313-2.686-6-6-6zm-130,32.048h124v132.076h-124v-132.076zm124-20.048v8.048h-124v-8.048h124zm-40.333,216.097h-43.334v-31.924h43.334v31.924zm6-43.924h-55.334-34.333v-8.048h124v8.048h-34.333z"/>
  </g>
</svg>
