<?xml version='1.0' encoding='iso-8859-1'?>
<!DOCTYPE svg PUBLIC '-//W3C//DTD SVG 1.1//EN' 'http://www.w3.org/Graphics/SVG/1.1/DTD/svg11.dtd'>
<svg version="1.1" xmlns="http://www.w3.org/2000/svg" viewBox="0 0 271.277 271.277" xmlns:xlink="http://www.w3.org/1999/xlink" enable-background="new 0 0 271.277 271.277">
  <g>
    <path d="m271.229,121.646c-2.525-19.988-13.493-38.001-30.091-49.421-16.598-11.419-37.343-15.226-56.913-10.438l-143.169,35.011c-26.449,6.468-43.863,31.612-40.683,58.605v50.109c0,3.313 2.687,6 6,6h246c2.149,0 4.135-1.15 5.204-3.014s1.061-4.158-0.024-6.014l-14.834-25.378c-1.075-1.841-3.048-2.972-5.18-2.972h-154.752c0.736-2.013 1.316-4.09 1.742-6.213l165.029-14.335c1.585-0.138 3.051-0.899 4.074-2.118 1.023-1.218 1.521-2.793 1.384-4.379l-1.491-17.159 12.502-1.58c3.289-0.415 5.617-3.417 5.202-6.704zm-28.687,20.504l-156.868,13.627 .28-4.676 155.657-19.666 .931,10.715zm-195.804,13.906c0.878,0.99 1.379,2.314 1.294,3.737-0.171,2.844-2.62,5.021-5.467,4.848-2.844-0.171-5.019-2.623-4.848-5.467 0.044-0.741 0.254-1.43 0.575-2.051l8.446-1.067zm-34.364,32.99c4.483,4.629 10.02,8.246 16.248,10.467h-16.248v-10.467zm44.815,10.467c5.046-1.805 9.754-4.569 13.884-8.232 1.795-1.592 3.426-3.317 4.904-5.146h158.12l7.819,13.378h-184.727zm5.922-17.211c-6.095,5.406-13.928,8.118-22.063,7.626-15.867-0.952-28.198-13.938-28.654-29.533l13.342-1.686c-0.422,9.339 6.747,17.348 16.11,17.91 0.349,0.021 0.694,0.031 1.039,0.031 9,0 16.579-7.039 17.125-16.139 0.126-2.103-0.153-4.134-0.737-6.039l14.567-1.841-.521,8.677c-0.486,8.133-4.112,15.589-10.208,20.994zm-51.112-33.952c0.32-18.747 13.212-35.323 31.908-39.895l143.17-35.013c4.601-1.125 9.278-1.678 13.936-1.678 11.792,0 23.443,3.549 33.324,10.347 12.123,8.342 20.63,20.921 23.93,35.125l-246.268,31.114z"/>
  </g>
</svg>
