<?xml version="1.0" encoding="iso-8859-1"?>
<!-- Generator: Adobe Illustrator 19.0.0, SVG Export Plug-In . SVG Version: 6.00 Build 0)  -->
<svg version="1.1" id="Capa_1" xmlns="http://www.w3.org/2000/svg" xmlns:xlink="http://www.w3.org/1999/xlink" x="0px" y="0px"
	 viewBox="0 0 418.088 418.088" style="enable-background:new 0 0 418.088 418.088;" xml:space="preserve">
<path id="XMLID_1123_" d="M283.414,290.148c0,3.866-3.134,7-7,7H101.027c-3.866,0-7-3.134-7-7s3.134-7,7-7h175.386
	C280.28,283.148,283.414,286.282,283.414,290.148z M188.722,354.467h-87.693c-3.866,0-7,3.134-7,7s3.134,7,7,7h87.693
	c3.866,0,7-3.134,7-7S192.588,354.467,188.722,354.467z M276.414,318.809H101.027c-3.866,0-7,3.134-7,7s3.134,7,7,7h175.386
	c3.866,0,7-3.134,7-7S280.28,318.809,276.414,318.809z M283.414,56.617v35.077c0,3.866-3.134,7-7,7h-63.154v138.79
	c0,3.866-3.134,7-7,7h-35.078c-3.866,0-7-3.134-7-7V98.694h-63.153c-3.866,0-7-3.134-7-7V56.617c0-3.866,3.134-7,7-7h175.385
	C280.28,49.617,283.414,52.751,283.414,56.617z M269.414,63.617H108.028v21.077h63.153c3.866,0,7,3.134,7,7v138.79h21.078V91.694
	c0-3.866,3.134-7,7-7h63.154V63.617z M387.9,47.053v121.939c0,12.019-9.778,21.797-21.797,21.797h-18.848v210.435
	c0,9.299-7.566,16.864-16.865,16.864H47.053c-9.299,0-16.865-7.565-16.865-16.864V16.864C30.188,7.565,37.754,0,47.053,0H330.39
	c9.299,0,16.865,7.565,16.865,16.864v8.392h18.848C378.122,25.256,387.9,35.034,387.9,47.053z M333.255,16.864
	c0-1.553-1.312-2.864-2.865-2.864H47.053c-1.553,0-2.865,1.312-2.865,2.864v384.359c0,1.553,1.312,2.864,2.865,2.864H330.39
	c1.553,0,2.865-1.312,2.865-2.864V16.864z M373.9,47.053c0-4.299-3.498-7.797-7.797-7.797h-18.848v137.533h18.848
	c4.299,0,7.797-3.498,7.797-7.797V47.053z"/>
<g>
</g>
<g>
</g>
<g>
</g>
<g>
</g>
<g>
</g>
<g>
</g>
<g>
</g>
<g>
</g>
<g>
</g>
<g>
</g>
<g>
</g>
<g>
</g>
<g>
</g>
<g>
</g>
<g>
</g>
</svg>
