<?xml version="1.0" encoding="iso-8859-1"?>
<!-- Generator: Adobe Illustrator 16.0.0, SVG Export Plug-In . SVG Version: 6.00 Build 0)  -->
<!DOCTYPE svg PUBLIC "-//W3C//DTD SVG 1.1//EN" "http://www.w3.org/Graphics/SVG/1.1/DTD/svg11.dtd">
<svg version="1.1" id="Capa_1" xmlns="http://www.w3.org/2000/svg" xmlns:xlink="http://www.w3.org/1999/xlink" x="0px" y="0px"
	 width="612px" height="612px" viewBox="0 0 612 612" style="enable-background:new 0 0 612 612;" xml:space="preserve">
<g>
	<g>
		<g>
			<g>
				<g>
					<path d="M305.997,612C137.269,612,0,474.729,0,306C0,137.271,137.269,0,305.997,0C474.729,0,612,137.271,612,306
						C612,474.729,474.729,612,305.997,612z M305.997,7.928C141.642,7.928,7.927,141.642,7.927,306
						c0,164.358,133.714,298.072,298.07,298.072c164.359,0,298.075-133.714,298.075-298.072
						C604.072,141.642,470.356,7.928,305.997,7.928z"/>
				</g>
			</g>
			<g>
				<g>
					<path d="M221.17,173.829c13.578,0,25.005,2.285,34.264,6.853c9.266,4.573,16.729,10.559,22.414,17.968
						c5.679,7.408,9.754,15.873,12.226,25.377c2.469,9.51,3.704,19.205,3.704,29.081c0,13.584-2.034,25.439-6.11,35.566
						c-4.075,10.128-9.76,18.399-17.041,24.822c-7.29,6.423-16.118,11.239-26.492,14.447c-10.371,3.211-21.856,4.814-34.451,4.814
						h-28.525V438.34h-53.347V173.829H221.17 M221.17,165.901h-93.358h-7.928v7.927V438.34v7.927h7.928h53.347h7.928v-7.927v-97.655
						h20.599c13.337,0,25.718-1.738,36.794-5.169c11.394-3.522,21.284-8.93,29.389-16.069c8.194-7.229,14.636-16.584,19.154-27.813
						c4.435-11.018,6.683-23.98,6.683-38.524c0-10.499-1.332-20.952-3.958-31.072c-2.732-10.504-7.308-19.993-13.608-28.209
						c-6.407-8.351-14.885-15.164-25.197-20.253C248.623,168.482,235.915,165.901,221.17,165.901L221.17,165.901z"/>
				</g>
				<g>
					<path d="M418.625,173.829c22.229,0,39.511,5.621,51.866,16.857c12.344,11.241,18.519,28.341,18.519,51.308
						c0,17.781-3.58,32.296-10.741,43.53c-7.165,11.241-18.278,18.466-33.342,21.674v0.742c13.338,1.979,23.092,6.296,29.268,12.966
						c6.176,6.665,10.007,17.41,11.484,32.229c0.492,4.945,0.864,10.315,1.111,16.115c0.244,5.806,0.492,12.289,0.744,19.451
						c0.493,14.077,1.23,24.82,2.22,32.23c1.482,7.409,4.688,12.474,9.63,15.188v2.222h-57.789
						c-2.723-3.704-4.446-7.963-5.188-12.781c-0.74-4.813-1.238-9.814-1.48-15.003l-1.483-50.753
						c-0.497-10.373-3.091-18.522-7.781-24.453c-4.691-5.926-12.594-8.889-23.708-8.889h-28.526v111.879h-53.345V173.829H418.625
						 M418.625,165.901h-98.544h-7.928v7.927V438.34v7.927h7.928h53.345h7.928v-7.927V334.389h20.6
						c8.516,0,14.403,1.979,17.493,5.883c3.605,4.56,5.649,11.233,6.075,19.841l1.48,50.676l0.003,0.069l0.003,0.067
						c0.251,5.394,0.777,10.724,1.563,15.839c0.933,6.077,3.165,11.553,6.634,16.272l2.377,3.231h4.011h57.79h7.927v-7.928v-2.221
						v-4.688l-4.108-2.26c-1.021-0.561-4.104-2.256-5.627-9.554c-0.934-7.117-1.645-17.61-2.12-31.194
						c-0.25-7.146-0.501-13.709-0.745-19.507c-0.253-5.906-0.637-11.479-1.145-16.566c-1.674-16.739-6.107-28.784-13.56-36.831
						c-3.252-3.514-7.282-6.485-12.062-8.903c6.92-4.305,12.604-9.925,17.008-16.83c7.953-12.47,11.983-28.55,11.983-47.79
						c0-25.179-7.101-44.414-21.106-57.169C462.021,172.267,442.777,165.901,418.625,165.901L418.625,165.901z"/>
				</g>
			</g>
		</g>
	</g>
</g>
<g>
</g>
<g>
</g>
<g>
</g>
<g>
</g>
<g>
</g>
<g>
</g>
<g>
</g>
<g>
</g>
<g>
</g>
<g>
</g>
<g>
</g>
<g>
</g>
<g>
</g>
<g>
</g>
<g>
</g>
</svg>
